<?xml version="1.0" encoding="UTF-8" standalone="no"?>
<svg
   xmlns:dc="http://purl.org/dc/elements/1.1/"
   xmlns:cc="http://creativecommons.org/ns#"
   xmlns:rdf="http://www.w3.org/1999/02/22-rdf-syntax-ns#"
   xmlns:svg="http://www.w3.org/2000/svg"
   xmlns="http://www.w3.org/2000/svg"
   xmlns:sodipodi="http://sodipodi.sourceforge.net/DTD/sodipodi-0.dtd"
   xmlns:inkscape="http://www.inkscape.org/namespaces/inkscape"
   height="250"
   width="250"
   version="1.1"
   x="0px"
   y="0px"
   viewBox="0 0 83.333333 83.333333"
   enable-background="new 0 0 100 100"
   xml:space="preserve"
   id="svg10"
   sodipodi:docname="voteVerify.svg"
   inkscape:version="0.92.1 r15371"
   style="fill:#000000"><metadata
     id="metadata16"><rdf:RDF><cc:Work
         rdf:about=""><dc:format>image/svg+xml</dc:format><dc:type
           rdf:resource="http://purl.org/dc/dcmitype/StillImage" /><dc:title></dc:title></cc:Work></rdf:RDF></metadata><defs
     id="defs14" /><sodipodi:namedview
     pagecolor="#ffffff"
     bordercolor="#666666"
     borderopacity="1"
     objecttolerance="10"
     gridtolerance="10"
     guidetolerance="10"
     inkscape:pageopacity="0"
     inkscape:pageshadow="2"
     inkscape:window-width="1920"
     inkscape:window-height="1036"
     id="namedview12"
     showgrid="false"
     inkscape:zoom="1.1308333"
     inkscape:cx="35.647538"
     inkscape:cy="55.497762"
     inkscape:window-x="1080"
     inkscape:window-y="44"
     inkscape:window-maximized="1"
     inkscape:current-layer="g6" /><g
     id="g8"
     style="fill:#ff0000"
     transform="translate(0,-16.666667)"><g
       id="g6"
       style="fill:#ff0000"><path
         d="m 55.718855,76.361378 h -43.141 v -43.14 h 38.347 l 7.19,-7.19 c 0,0 -33.554,0 -45.538,0 -7.19,0 -7.19,7.19 -7.19,7.19 0,0 0,30.558 0,43.14 0.001,7.191 7.191,7.191 7.191,7.191 0,0 28.611,0 43.141,0 7.19,0 7.19,-7.191 7.19,-7.191 v -23.967 l -7.19,7.191 z"
         id="path2"
         inkscape:connector-curvature="0"
         style="fill:#0000ff" /><path
         d="m 83.158449,39.406807 -13.57,-4.415 c -0.362,0 -0.725,0.137 -0.905,0.345 -1.628,1.517 -9.139,8.692 -13.302,13.934 -3.075,3.795 -6.331,9.592 -7.959,12.282 -0.272,0.275 -0.906,0.414 -1.36,0.414 -0.36,0 -1.175,-0.691 -1.355,-0.966 -1.808,-2.209 -4.884,-5.932 -7.779,-8.761 -2.173,-2.208 -4.435,-3.866 -6.424,-5.589 -0.273,-0.208 -0.545,-0.275 -0.999,-0.275 -0.629,0 -1.263,0.413 -1.263,0.965 l -2.262,8.76 c 0,0.413 0.18,0.829 0.542,1.104 1.808,1.517 6.965,5.729 9.226,8.418 4.255,4.896 7.239,8.828 8.598,10.9 0.088,0.203 1.355,1.446996 1.628,1.446996 0.36,0 1.086,-0.550996 1.266,-0.759996 2.896,-3.517 10.947,-14.97 18.459,-22.351 7.418,-7.313 14.563,-12.141 17.911,-14.762 0,-0.07 0.089,-0.14 0.089,-0.278 0,-0.204 -0.267,-0.412 -0.541,-0.412 z"
         id="path4-3"
         inkscape:connector-curvature="0"
         style="fill:#000080;stroke:#ffffff;stroke-width:1" /><path
         d="m 81.519448,30.551477 -13.57,-4.415 c -0.362,0 -0.725,0.137 -0.905,0.345 -1.628,1.517 -9.139,8.692 -13.302,13.934 -3.075,3.795 -6.331,9.592 -7.959,12.282 -0.272,0.275 -0.906,0.414 -1.36,0.414 -0.36,0 -1.175,-0.691 -1.355,-0.966 -1.808,-2.209 -4.884,-5.932 -7.779,-8.761 -2.173,-2.208 -4.435,-3.866 -6.424,-5.589 -0.273,-0.208 -0.545,-0.275 -0.999,-0.275 -0.629,0 -1.263,0.413 -1.263,0.965 l -2.262001,8.76 c 0,0.413 0.18,0.829 0.542,1.104 1.808001,1.517 6.965001,5.729 9.226001,8.418 4.255,4.896 7.239,8.828 8.598,10.9 0.088,0.203 1.355,1.447 1.628,1.447 0.36,0 1.086,-0.551 1.266,-0.76 2.896,-3.517 10.947,-14.97 18.459,-22.351 7.418,-7.313 14.563,-12.141 17.911,-14.762 0,-0.07 0.089,-0.14 0.089,-0.278 0,-0.204 -0.267,-0.412 -0.541,-0.412 z"
         id="path4"
         inkscape:connector-curvature="0"
         style="fill:#ff0000;stroke:#ffffff" /></g></g></svg>